# xmcd
#
# Track frame offsets:
# 225
# 21960
# 43470
# 62800
# 79848
# 98765
# 124864
# 147543
# 171367
# 199064
# 222250
# 235385
# 253114
# 278877
# 293983
#
# Disc length: 4336 seconds
#
#
# Revision: 0
# Processed by: cddbd v1.5.2PL0 Copyright (c) Steve Scherf et al.
# Submitted via: Nero 7, 11, 10, 0 
#
DISCID=f310ed0f
DTITLE=Bryce Janey and Merrill J. Miller - Live At Checker's Tavern
DYEAR=1997
DGENRE=Blues
TTITLE0=IOU
TTITLE1=It Ain't Right
TTITLE2=Terraplane Blues
TTITLE3=Built For Comfort
TTITLE4=Gamblin' Man's Blues
TTITLE5=Killing Floor
TTITLE6=That's Not Your Baby
TTITLE7=Practice What You Preach
TTITLE8=Purple Haze
TTITLE9=Goin' Back Home
TTITLE10=Walkin' Blues
TTITLE11=Sloe Bluze
TTITLE12=Make Love To You
TTITLE13=Likes My Whiskey
TTITLE14=Pontiac Blues
EXTD=
EXTT0=IOU
EXTT1=It Ain't Right
EXTT2=Terraplane Blues
EXTT3=Built For Comfort
EXTT4=Gamblin' Man's Blues
EXTT5=Killing Floor
EXTT6=That's Not Your Baby
EXTT7=Practice What You Preach
EXTT8=Purple Haze
EXTT9=Goin' Back Home
EXTT10=Walkin' Blues
EXTT11=Sloe Bluze
EXTT12=Make Love To You
EXTT13=Likes My Whiskey
EXTT14=Pontiac Blues
PLAYORDER=
